<svg width="20" height="20" viewBox="0 0 20 20" fill="none" xmlns="http://www.w3.org/2000/svg">
<g clip-path="url(#clip0_82_246)">
<path d="M19.3544 9.9975C19.361 9.77469 19.4197 6.59 17.535 4.51688C17.4513 4.33156 17.0541 3.58469 15.7722 2.67188C15.2039 2.23106 14.6003 1.83776 13.9675 1.49594L13.965 1.49469C13.885 1.45187 12.3219 0.625 10.4247 0.625C10.2807 0.625 10.1382 0.633438 9.99723 0.643125V0.640625C8.55067 0.609062 7.1138 0.98125 6.24786 1.37219C5.47973 1.71906 4.62692 2.30062 4.56536 2.34563C3.50161 2.94062 1.48442 5.32844 1.32473 6.59375C0.680045 7.41781 0.141295 11.1194 1.32598 13.3741C2.15661 16.5075 5.28348 18.0756 5.53223 18.1959C5.68348 18.2925 7.38755 19.3459 9.48098 19.3459C9.5688 19.3459 10.0997 19.3753 10.2891 19.3753C12.5519 19.3753 15.905 17.7803 16.6069 16.5309C18.5354 15.1203 19.535 11.485 19.3544 9.9975ZM5.54942 14.7047C4.65286 13.2544 4.14192 11.3594 4.03255 10.9241C4.3163 10.4988 5.71598 8.435 6.51348 7.81406C6.96505 7.89719 8.85067 8.24344 10.6291 8.56531C10.8525 9.14437 11.8329 11.6994 12.1135 12.6856C11.8041 13.0525 10.5888 14.4675 9.39223 15.5756C8.12192 15.5816 5.9613 14.8488 5.54942 14.7047ZM16.82 4.55625C16.8163 4.69688 16.7829 5.19687 16.5435 5.77094C16.0682 5.52812 14.8735 5.00812 13.236 4.92031C12.9882 4.55437 12.0557 3.27844 10.5829 2.39344C10.7844 1.99906 11.065 1.51812 11.2291 1.37156C11.2822 1.35656 11.3647 1.34281 11.4904 1.34281C12.28 1.34281 13.6444 1.86 13.7632 1.90594C13.8891 1.9725 16.3416 3.29313 16.82 4.55625ZM3.67911 10.6287C2.60942 10.4462 1.97348 10.1138 1.78348 10.0013C1.38567 8.55844 1.70598 6.99906 1.75536 6.77562C2.14786 6.07375 3.26536 4.28469 4.00255 3.945C4.76661 3.78906 5.71942 3.98281 6.10755 4.0775C6.07098 4.58219 6.00067 5.99219 6.20942 7.47188C5.3638 8.1525 4.02536 10.1116 3.67911 10.6287ZM9.90161 1.10312C10.1416 1.12094 10.4938 1.17344 10.735 1.245C10.4944 1.565 10.2479 2.03938 10.1313 2.27375C9.64067 2.35406 7.77723 2.71031 6.31536 3.65813C6.02067 3.58 5.13067 3.37156 4.28786 3.44344C4.49661 3.03938 4.80848 2.74062 4.84192 2.71C4.95786 2.62687 7.18973 1.06531 9.90161 1.09906V1.10312ZM15.8691 13.0072C15.5035 12.9922 14.0947 12.9119 12.55 12.5491C12.2541 11.5172 11.2769 8.97281 11.0535 8.39406C11.7644 7.38076 12.4861 6.37508 13.2185 5.37719C14.996 5.47469 16.2441 6.12313 16.4857 6.25844C17.5154 7.91438 17.7413 9.60563 17.7722 9.88813C17.2254 11.59 16.1438 12.7359 15.8691 13.0072ZM1.14223 8.91219C1.16848 9.30781 1.23192 9.72438 1.34661 10.1363C1.2435 10.4031 1.17197 10.6812 1.13348 10.9647C1.06822 10.2819 1.07115 9.59437 1.14223 8.91219ZM4.15598 16.2119C4.62723 15.7578 5.20817 15.3159 5.43348 15.1491C5.94286 15.3284 8.03473 16.0356 9.36817 16.0356C9.59536 16.3403 10.3382 17.2944 11.2488 18.0238C10.6819 18.5784 9.86317 18.8403 9.71848 18.8838C7.1788 18.9519 4.70536 17.5244 4.15598 16.2119ZM10.8632 18.88C11.1513 18.7122 11.4516 18.4913 11.7 18.2116C12.1054 18.1556 13.8447 17.8563 15.4166 16.7016C15.5204 16.7128 15.6913 16.7266 15.8822 16.7213C14.9391 17.6453 12.6379 18.6775 10.8632 18.88ZM15.6832 16.2625C16.2479 14.7913 16.2238 13.6819 16.196 13.3275C16.506 13.0237 17.5697 11.8903 18.16 10.1672C18.4782 10.2203 18.685 10.3013 18.7832 10.3466C18.8172 10.4716 18.8741 10.7603 18.8419 11.1981C18.6013 12.7741 17.7707 15.1356 16.3157 16.1797C16.1694 16.2544 15.9119 16.2706 15.6832 16.2625Z" fill="black"/>
</g>
<defs>
<clipPath id="clip0_82_246">
<rect width="20" height="20" fill="white"/>
</clipPath>
</defs>
</svg>
